# xmcd CD database file
#
# Track frame offsets:
#	180
#	19537
#	38032
#	72437
#	89336
#	111602
#	133363
#	173288
#	210345
#	229848
#	246056
#	269109
#	291011
#	310985
#
# Disc length: 4359 seconds
#
# Revision: 1
# Processed by: cddbd v1.5.2PL0 Copyright (c) Steve Scherf et al.
# Submitted via: CDex 1.70beta2
#
DISCID=ca11050e
DTITLE=Frank Duval - Time for Lovers and Angel of Mine
DYEAR=1900
DGENRE=Misc
TTITLE0=Angel of Mine
TTITLE1=Autumn Dreams
TTITLE2=Time To Make A Breake Now
TTITLE3=Song Of Theben
TTITLE4=Taken My Heart, Maria
TTITLE5=Fragments in my life
TTITLE6=Cry For Our World
TTITLE7=Lord
TTITLE8=A Day Like Today
TTITLE9=Out of Seasons
TTITLE10=Time for Lovers
TTITLE11=It Was Love
TTITLE12=Angel By My Side
TTITLE13=Time For Lovers
EXTD=
EXTT0=
EXTT1=
EXTT2=
EXTT3=
EXTT4=
EXTT5=
EXTT6=
EXTT7=
EXTT8=
EXTT9=
EXTT10=
EXTT11=
EXTT12=
EXTT13=
PLAYORDER=
